<?xml version="1.0" encoding="UTF-8" standalone="no"?>
<svg
   xmlns:dc="http://purl.org/dc/elements/1.1/"
   xmlns:cc="http://creativecommons.org/ns#"
   xmlns:rdf="http://www.w3.org/1999/02/22-rdf-syntax-ns#"
   xmlns:svg="http://www.w3.org/2000/svg"
   xmlns="http://www.w3.org/2000/svg"
   xmlns:xlink="http://www.w3.org/1999/xlink"
   width="3757.3696"
   height="1279.9999"
   viewBox="0 0 994.13755 338.66669"
   version="1.1"
   id="svg8">
  <defs
     id="defs2">
    <linearGradient
       id="linearGradient943">
      <stop
         style="stop-color:#df5396;stop-opacity:1"
         offset="0"
         id="stop939" />
      <stop
         style="stop-color:#f65e79;stop-opacity:1"
         offset="1"
         id="stop941" />
    </linearGradient>
    <linearGradient
       xlink:href="#linearGradient943"
       id="linearGradient893"
       x1="0"
       y1="270.93329"
       x2="270.93329"
       y2="0"
       gradientUnits="userSpaceOnUse" />
    <clipPath
       clipPathUnits="userSpaceOnUse"
       id="clipPath928">
      <path
         d="M 0,566.929 H 566.929 V 0 H 0 Z"
         id="path926" />
    </clipPath>
  </defs>
  <metadata
     id="metadata5">
    <rdf:RDF>
      <cc:Work
         rdf:about="">
        <dc:format>image/svg+xml</dc:format>
        <dc:type
           rdf:resource="http://purl.org/dc/dcmitype/StillImage" />
        <dc:title></dc:title>
      </cc:Work>
    </rdf:RDF>
  </metadata>
  <g
     id="layer1"
     transform="translate(33.866667,33.866667)">
    <rect
       style="fill:url(#linearGradient893);fill-opacity:1;stroke-width:0.529167;stroke-linejoin:round"
       id="rect885"
       width="270.93329"
       height="270.93329"
       x="0"
       y="0"
       rx="48" />
    <g
       aria-label="npbloom"
       id="text1999"
       style="font-style:normal;font-variant:normal;font-weight:normal;font-stretch:normal;font-size:126.131px;line-height:1.25;font-family:Comfortaa;-inkscape-font-specification:'Comfortaa, Normal';font-variant-ligatures:normal;font-variant-caps:normal;font-variant-numeric:normal;font-variant-east-asian:normal;fill:#f05b80;fill-opacity:1;stroke-width:3.15328">
      <path
         d="m 410.66717,174.58725 q -2.14423,0 -3.53167,-1.38744 -1.38744,-1.38744 -1.38744,-3.40554 v -32.79406 q 0,-7.82012 -3.02714,-12.86536 -2.90102,-5.04524 -8.07239,-7.56786 -5.04524,-2.52262 -11.47792,-2.52262 -6.18042,0 -11.22566,2.39649 -4.91911,2.39649 -7.82012,6.55881 -2.90101,4.16232 -2.90101,9.45983 h -6.93721 q 0.25227,-7.94626 4.28846,-14.12667 4.03619,-6.30655 10.72113,-9.83822 6.68495,-3.6578 14.88346,-3.6578 8.9553,0 16.01864,3.78393 7.06333,3.6578 11.09952,10.84726 4.16233,7.18947 4.16233,17.53221 v 32.79406 q 0,2.0181 -1.38744,3.40554 -1.38744,1.38744 -3.40554,1.38744 z m -54.23633,0 q -2.27036,0 -3.6578,-1.26131 -1.26131,-1.38744 -1.26131,-3.53167 V 110.5127 q 0,-2.27035 1.26131,-3.53166 1.38744,-1.38745 3.6578,-1.38745 2.14423,0 3.40554,1.38745 1.38744,1.26131 1.38744,3.53166 v 59.28157 q 0,2.14423 -1.38744,3.53167 -1.26131,1.26131 -3.40554,1.26131 z"
         style="font-style:normal;font-variant:normal;font-weight:normal;font-stretch:normal;font-size:126.131px;font-family:Comfortaa;-inkscape-font-specification:'Comfortaa, Normal';font-variant-ligatures:normal;font-variant-caps:normal;font-variant-numeric:normal;font-variant-east-asian:normal;fill:#f05b80;fill-opacity:1;stroke-width:3.15328"
         id="path1699" />
      <path
         d="m 441.82129,204.1019 q -2.27036,0 -3.6578,-1.38744 -1.26131,-1.26131 -1.26131,-3.53167 v -59.53383 q 0.12613,-9.83821 4.66685,-17.65834 4.66685,-7.94625 12.48697,-12.48696 7.94625,-4.54072 17.78447,-4.54072 10.09048,0 18.03673,4.66685 7.94625,4.54071 12.48697,12.48697 4.66685,7.94625 4.66685,18.03673 0,9.96435 -4.54072,17.9106 -4.41458,7.94625 -12.10858,12.6131 -7.69399,4.54071 -17.40607,4.54071 -8.45078,0 -15.38798,-3.53166 -6.81108,-3.6578 -10.9734,-9.58596 v 37.08251 q 0,2.27036 -1.38744,3.53167 -1.26131,1.38744 -3.40554,1.38744 z m 30.01918,-37.71317 q 7.3156,0 13.11762,-3.40553 5.80203,-3.40554 9.08143,-9.3337 3.40554,-6.05428 3.40554,-13.49601 0,-7.56786 -3.40554,-13.49602 -3.2794,-5.92816 -9.08143,-9.33369 -5.80202,-3.53167 -13.11762,-3.53167 -7.18947,0 -12.99149,3.53167 -5.80203,3.40553 -9.08144,9.33369 -3.2794,5.92816 -3.2794,13.49602 0,7.44173 3.2794,13.49601 3.27941,5.92816 9.08144,9.3337 5.80202,3.40553 12.99149,3.40553 z"
         style="font-style:normal;font-variant:normal;font-weight:normal;font-stretch:normal;font-size:126.131px;font-family:Comfortaa;-inkscape-font-specification:'Comfortaa, Normal';font-variant-ligatures:normal;font-variant-caps:normal;font-variant-numeric:normal;font-variant-east-asian:normal;fill:#f05b80;fill-opacity:1;stroke-width:3.15328"
         id="path1701" />
      <path
         d="m 561.01493,175.2179 q -9.83822,0 -17.78447,-4.54071 -7.82012,-4.54072 -12.48697,-12.36084 -4.54072,-7.94625 -4.66685,-17.78447 V 80.99805 q 0,-2.270358 1.26131,-3.531668 1.38744,-1.387441 3.6578,-1.387441 2.14423,0 3.40554,1.387441 1.38744,1.26131 1.38744,3.531668 v 37.08251 q 4.16232,-5.92815 10.9734,-9.45982 6.9372,-3.6578 15.38798,-3.6578 9.71209,0 17.40608,4.66685 7.69399,4.54071 12.10857,12.48697 4.54072,7.94625 4.54072,17.9106 0,10.09048 -4.66685,18.03673 -4.54072,7.94625 -12.48697,12.6131 -7.94625,4.54071 -18.03673,4.54071 z m 0,-8.82917 q 7.3156,0 13.11762,-3.40553 5.80203,-3.53167 9.08143,-9.45983 3.40554,-5.92815 3.40554,-13.49601 0,-7.44173 -3.40554,-13.36989 -3.2794,-6.05429 -9.08143,-9.45982 -5.80202,-3.40554 -13.11762,-3.40554 -7.18947,0 -12.99149,3.40554 -5.80203,3.40553 -9.08144,9.45982 -3.2794,5.92816 -3.2794,13.36989 0,7.56786 3.2794,13.49601 3.27941,5.92816 9.08144,9.45983 5.80202,3.40553 12.99149,3.40553 z"
         style="font-style:normal;font-variant:normal;font-weight:normal;font-stretch:normal;font-size:126.131px;font-family:Comfortaa;-inkscape-font-specification:'Comfortaa, Normal';font-variant-ligatures:normal;font-variant-caps:normal;font-variant-numeric:normal;font-variant-east-asian:normal;fill:#f05b80;fill-opacity:1;stroke-width:3.15328"
         id="path1703" />
      <path
         d="m 630.13457,174.58725 q -5.04524,0 -9.08143,-2.77488 -3.91006,-2.77488 -6.18042,-7.69399 -2.14423,-4.91911 -2.14423,-11.35179 V 80.871919 q 0,-2.144227 1.26131,-3.405537 1.38744,-1.387441 3.53167,-1.387441 2.14423,0 3.40554,1.387441 1.38744,1.26131 1.38744,3.405537 v 71.894671 q 0,5.42363 2.14422,8.82917 2.27036,3.40553 5.6759,3.40553 h 3.15327 q 1.89197,0 3.02715,1.38744 1.13518,1.26131 1.13518,3.40554 0,2.14423 -1.63971,3.53167 -1.51357,1.26131 -4.03619,1.26131 z"
         style="font-style:normal;font-variant:normal;font-weight:normal;font-stretch:normal;font-size:126.131px;font-family:Comfortaa;-inkscape-font-specification:'Comfortaa, Normal';font-variant-ligatures:normal;font-variant-caps:normal;font-variant-numeric:normal;font-variant-east-asian:normal;fill:#f05b80;fill-opacity:1;stroke-width:3.15328"
         id="path1705" />
      <path
         d="m 678.44261,175.2179 q -10.09048,0 -18.03673,-4.54071 -7.94625,-4.54072 -12.48697,-12.48697 -4.54072,-7.94625 -4.54072,-18.03673 0,-10.21661 4.54072,-18.16287 4.54072,-7.94625 12.48697,-12.48696 7.94625,-4.54072 18.03673,-4.54072 10.09048,0 17.9106,4.54072 7.94626,4.54071 12.48697,12.48696 4.54072,7.94626 4.66685,18.16287 0,10.09048 -4.66685,18.03673 -4.54071,7.94625 -12.48697,12.48697 -7.82012,4.54071 -17.9106,4.54071 z m 0,-8.82917 q 7.3156,0 13.11763,-3.40553 5.80202,-3.40554 9.08143,-9.3337 3.2794,-5.92815 3.2794,-13.49601 0,-7.56786 -3.2794,-13.49602 -3.27941,-6.05429 -9.08143,-9.45982 -5.80203,-3.40554 -13.11763,-3.40554 -7.3156,0 -13.11762,3.40554 -5.80203,3.40553 -9.20756,9.45982 -3.27941,5.92816 -3.27941,13.49602 0,7.56786 3.27941,13.49601 3.40553,5.92816 9.20756,9.3337 5.80202,3.40553 13.11762,3.40553 z"
         style="font-style:normal;font-variant:normal;font-weight:normal;font-stretch:normal;font-size:126.131px;font-family:Comfortaa;-inkscape-font-specification:'Comfortaa, Normal';font-variant-ligatures:normal;font-variant-caps:normal;font-variant-numeric:normal;font-variant-east-asian:normal;fill:#f05b80;fill-opacity:1;stroke-width:3.15328"
         id="path1707" />
      <path
         d="m 763.83305,175.2179 q -10.09048,0 -18.03673,-4.54071 -7.94625,-4.54072 -12.48697,-12.48697 -4.54071,-7.94625 -4.54071,-18.03673 0,-10.21661 4.54071,-18.16287 4.54072,-7.94625 12.48697,-12.48696 7.94625,-4.54072 18.03673,-4.54072 10.09048,0 17.91061,4.54072 7.94625,4.54071 12.48696,12.48696 4.54072,7.94626 4.66685,18.16287 0,10.09048 -4.66685,18.03673 -4.54071,7.94625 -12.48696,12.48697 -7.82013,4.54071 -17.91061,4.54071 z m 0,-8.82917 q 7.3156,0 13.11763,-3.40553 5.80202,-3.40554 9.08143,-9.3337 3.27941,-5.92815 3.27941,-13.49601 0,-7.56786 -3.27941,-13.49602 -3.27941,-6.05429 -9.08143,-9.45982 -5.80203,-3.40554 -13.11763,-3.40554 -7.31559,0 -13.11762,3.40554 -5.80203,3.40553 -9.20756,9.45982 -3.27941,5.92816 -3.27941,13.49602 0,7.56786 3.27941,13.49601 3.40553,5.92816 9.20756,9.3337 5.80203,3.40553 13.11762,3.40553 z"
         style="font-style:normal;font-variant:normal;font-weight:normal;font-stretch:normal;font-size:126.131px;font-family:Comfortaa;-inkscape-font-specification:'Comfortaa, Normal';font-variant-ligatures:normal;font-variant-caps:normal;font-variant-numeric:normal;font-variant-east-asian:normal;fill:#f05b80;fill-opacity:1;stroke-width:3.15328"
         id="path1709" />
      <path
         d="m 911.02768,174.58725 q -2.14422,0 -3.53166,-1.26131 -1.38744,-1.38744 -1.38744,-3.53167 v -36.32573 q 0,-8.9553 -4.66685,-14.12667 -4.66685,-5.2975 -11.98245,-5.2975 -7.82012,0 -12.86536,5.2975 -4.91911,5.17137 -4.79298,13.87441 h -8.70303 q 0.12613,-8.45077 3.65779,-14.88345 3.53167,-6.43269 9.71209,-9.96435 6.18042,-3.53167 14.00054,-3.53167 7.44173,0 13.11763,3.53167 5.80202,3.53166 8.9553,9.96435 3.2794,6.43268 3.2794,15.13571 v 36.32573 q 0,2.14423 -1.38744,3.53167 -1.26131,1.26131 -3.40554,1.26131 z m -88.29169,0 q -2.27036,0 -3.6578,-1.26131 -1.26131,-1.38744 -1.26131,-3.53167 V 110.5127 q 0,-2.14422 1.26131,-3.53166 1.38744,-1.38745 3.6578,-1.38745 2.14422,0 3.40553,1.38745 1.38744,1.38744 1.38744,3.53166 v 59.28157 q 0,2.14423 -1.38744,3.53167 -1.26131,1.26131 -3.40553,1.26131 z m 44.27198,0 q -2.14423,0 -3.53167,-1.26131 -1.38744,-1.38744 -1.38744,-3.53167 v -36.32573 q 0,-8.9553 -4.66685,-14.12667 -4.66685,-5.2975 -11.98244,-5.2975 -7.82013,0 -12.86537,5.17137 -5.04524,5.04524 -5.04524,13.24376 h -6.9372 q 0.25226,-8.07239 3.53167,-14.25281 3.40553,-6.30655 9.20756,-9.83821 5.80203,-3.53167 13.11762,-3.53167 7.44173,0 13.11763,3.53167 5.80202,3.53166 8.9553,9.96435 3.2794,6.43268 3.2794,15.13571 v 36.32573 q 0,2.14423 -1.38744,3.53167 -1.26131,1.26131 -3.40553,1.26131 z"
         style="font-style:normal;font-variant:normal;font-weight:normal;font-stretch:normal;font-size:126.131px;font-family:Comfortaa;-inkscape-font-specification:'Comfortaa, Normal';font-variant-ligatures:normal;font-variant-caps:normal;font-variant-numeric:normal;font-variant-east-asian:normal;fill:#f05b80;fill-opacity:1;stroke-width:3.15328"
         id="path1711" />
    </g>
    <path
       id="path932-4"
       style="fill:#ffffff;fill-opacity:1;fill-rule:nonzero;stroke:none;stroke-width:0.510692"
       d="m 135.56279,20.718154 c -0.51222,0.02655 -0.99168,0.214567 -1.4079,0.433143 -0.2339,0.123078 -0.46139,0.253146 -0.68151,0.400225 -0.18485,0.123586 -0.36254,0.257507 -0.53413,0.39948 -0.17262,0.142997 -0.33791,0.294039 -0.49673,0.451844 -0.16086,0.160359 -0.31523,0.327856 -0.46231,0.500471 -0.14964,0.175678 -0.29254,0.356981 -0.4294,0.542362 -0.1394,0.188957 -0.27233,0.381891 -0.39949,0.579019 -0.1297,0.199682 -0.25429,0.404118 -0.37329,0.610438 -0.12058,0.208874 -0.23526,0.420634 -0.34712,0.635126 -0.11233,0.216023 -0.22072,0.434466 -0.3254,0.654577 -0.10525,0.22164 -0.2069,0.444593 -0.30598,0.668788 -0.099,0.224705 -0.1953,0.451019 -0.28876,0.677767 -0.0935,0.226237 -0.18518,0.452989 -0.27454,0.680751 -0.0889,0.225224 -0.17553,0.451532 -0.26184,0.677769 -0.0849,0.223182 -0.1691,0.44661 -0.25286,0.670284 -0.007,0.01998 -0.0145,0.03995 -0.0217,0.05979 -0.006,0.01578 -0.0225,0.04227 -0.0225,0.05906 -5.98482,15.995959 -17.21657,29.438533 -28.958423,41.841241 -10.585664,11.18112 -21.567431,22.134065 -30.468829,34.755391 -9.298195,13.18306 -15.102607,27.9507 -18.220395,43.74287 -3.359341,17.01632 -3.385586,34.70952 0.157098,51.69877 0.984117,4.7188 1.918523,8.56987 1.357781,13.41992 -0.0087,0.0719 -0.01751,0.14447 -0.0262,0.21695 -0.242059,1.93399 0.238729,3.90009 2.192647,4.68452 1.790494,0.71855 3.926495,0.43524 5.765499,0.0793 5.386799,-1.04285 10.210727,-3.59489 14.813616,-6.50687 1.895187,-1.1996 3.777346,-2.44704 5.478984,-3.91323 0.504052,-0.43461 1.612247,-1.952 2.288394,-1.76101 0.447378,0.12667 0.96139,2.61836 1.127376,3.0739 1.600506,4.39349 3.686288,8.60973 6.209113,12.54615 1.263454,1.9723 2.628835,4.38235 5.232871,2.96468 2.316507,-1.2604 4.26268,-3.06348 6.301868,-4.70996 2.13215,-1.72205 4.18329,-3.5264 6.16273,-5.42363 0.21909,-0.20989 1.15462,-0.9735 1.6413,-1.6226 0.17569,-0.23492 0.53367,-0.19272 0.65982,0.0718 1.94677,4.08555 4.36238,7.85942 6.50985,11.83772 3.18673,5.9031 7.45992,11.32902 12.00304,16.24395 1.27725,1.38142 2.66496,2.55488 4.05763,3.81375 0.89218,0.8069 1.66049,1.76579 2.53377,2.56144 2.4e-4,-9.9e-4 3.7e-4,-9.9e-4 7.7e-4,-0.003 4e-5,9.9e-4 -4e-5,9.9e-4 0,0.003 0.65419,-0.70425 1.28082,-1.34597 2.02131,-2.00936 1.7231,-1.54228 3.44166,-3.04041 5.0294,-4.72416 2.14389,-2.27412 4.07559,-4.74139 5.95851,-7.23102 1.80632,-2.388 4.49575,-6.46971 5.93233,-9.09672 2.08567,-3.81693 4.39444,-7.46099 6.26971,-11.39486 0.12608,-0.26453 0.48413,-0.30697 0.65981,-0.0725 0.4867,0.64961 1.42272,1.41271 1.64131,1.6226 1.97945,1.89774 4.03058,3.70209 6.16273,5.42363 2.03919,1.64649 3.98589,3.44905 6.30189,4.70996 2.60453,1.41768 3.96964,-0.99162 5.2336,-2.96392 2.52232,-3.93693 4.60913,-8.15393 6.20913,-12.54691 0.16598,-0.45605 0.67926,-2.94775 1.12662,-3.0739 0.67666,-0.19098 1.78433,1.32692 2.28839,1.76101 1.70215,1.46619 3.58455,2.71338 5.47973,3.9125 4.60288,2.91249 9.42658,5.46475 14.81287,6.5076 1.839,0.35595 3.97526,0.63976 5.76625,-0.0793 1.95341,-0.78391 2.4342,-2.75076 2.19265,-4.68526 -0.009,-0.072 -0.0179,-0.14418 -0.0262,-0.2162 -0.4111,-3.53196 -0.16904,-7.06682 0.62764,-10.51809 5.5957,-24.23855 4.0408,-50.03421 -4.1354,-73.50775 C 206.55708,106.46839 188.76203,89.617226 171.3826,71.260333 159.64074,58.857625 148.409,45.415051 142.42417,29.419094 c -0.10206,-0.273735 -0.20477,-0.546672 -0.30895,-0.819899 -0.13073,-0.343697 -0.26384,-0.686726 -0.40173,-1.027871 -0.13897,-0.344206 -0.28224,-0.686763 -0.43239,-1.026375 -0.15015,-0.339099 -0.30734,-0.674735 -0.4728,-1.006176 -0.16393,-0.327354 -0.3363,-0.64966 -0.52065,-0.965779 -0.1808,-0.309481 -0.37322,-0.613033 -0.57903,-0.906682 -0.2007,-0.286499 -0.41405,-0.564103 -0.64336,-0.828132 -0.22419,-0.2579 -0.46432,-0.503622 -0.71965,-0.730881 -0.25229,-0.223683 -0.51977,-0.429105 -0.8027,-0.611934 -0.28446,-0.18385 -0.58319,-0.343514 -0.89471,-0.475783 -0.15884,-0.06792 -0.32108,-0.128434 -0.48551,-0.181038 -0.0879,-0.02861 -0.17694,-0.05679 -0.26632,-0.08079 -0.10264,-0.02553 -0.21298,-0.03658 -0.31868,-0.03965 -0.003,0 -0.004,0.0021 -0.007,0.0023 -0.003,-3.37e-4 -0.003,-0.0025 -0.007,-0.0023 z m -0.0194,16.220018 c 7.7e-4,0.0087 9.9e-4,0.01751 0.003,0.0262 0.0444,0.505587 0.0933,1.010305 0.14962,1.514879 0.0557,0.504053 0.11755,1.007858 0.18553,1.510376 0.12826,0.943772 0.28338,1.883678 0.4698,2.820285 0.84571,4.250505 2.32202,8.351947 3.99403,12.350159 7.47094,17.861526 19.00084,34.066305 33.39832,47.006829 7.46226,6.70744 15.82334,11.84707 22.24735,19.67243 7.01489,8.54544 11.9774,18.70765 13.95481,29.61301 0.49947,2.75468 0.86352,5.5338 1.09894,8.32322 0.5444,6.45413 0.39889,12.9599 -0.3314,19.39413 -0.59701,5.25964 -1.58108,10.47692 -2.92727,15.59611 -0.51478,1.95749 -1.08303,3.90154 -1.70863,5.82685 -0.25432,0.78288 -0.51798,1.56301 -0.79221,2.33926 -0.28038,0.79514 -0.57087,1.5865 -0.87677,2.37143 -0.0914,0.23442 -1.02377,2.17774 -0.98596,2.37743 -1.73178,-1.75322 -3.63453,-3.3233 -5.54708,-4.86406 -6.98067,-5.62529 -13.7938,-10.88581 -18.88694,-18.43284 -2.97939,-4.41444 -5.2759,-9.33257 -6.49339,-14.52785 -1.19093,-5.08397 -1.34498,-10.31378 -2.56144,-15.4248 -1.5561,-6.53894 -3.54652,-13.04449 -6.00041,-19.30662 0,0 -1.58642,-4.12235 -5.64132,-3.94615 -4.05439,0.17618 -2.55621,5.55304 -2.55621,5.55304 4.92718,17.24612 6.04161,37.07483 -0.77054,53.95275 -3.00901,7.4546 -7.60517,13.99331 -11.8235,20.76613 -1.62095,2.6025 -3.45585,5.12803 -5.56502,7.37763 -0.2224,0.23766 -2.01256,1.61651 -2.02507,1.92483 -0.0568,-0.30669 -1.80278,-1.68779 -2.02507,-1.92483 -2.10865,-2.25012 -3.94408,-4.77462 -5.56502,-7.37763 -4.21833,-6.77282 -8.81425,-13.31129 -11.82276,-20.76539 -6.81214,-16.87842 -5.69844,-36.70737 -0.77127,-53.95349 0,0 1.49869,-5.37612 -2.5562,-5.5523 -4.05492,-0.1767 -5.64135,3.94541 -5.64135,3.94541 -2.73782,6.98577 -4.93964,14.275 -6.52329,21.60549 -1.105142,5.11357 -1.111989,10.35187 -2.63027,15.39038 -1.5903,5.2765 -4.263302,10.20314 -7.58486,14.58695 -3.234727,4.2694 -7.061842,8.05464 -11.150965,11.50183 -3.828679,3.22808 -8.079908,5.90075 -11.599082,9.47152 0.0388,-0.19662 -0.89532,-2.14301 -0.986738,-2.37743 -0.305393,-0.78544 -0.595644,-1.57604 -0.876008,-2.37067 -0.274241,-0.77677 -0.538651,-1.55662 -0.792972,-2.34002 -0.625089,-1.92531 -1.193098,-3.87011 -1.707878,-5.82758 -1.345678,-5.11922 -2.331011,-10.33574 -2.928017,-15.59538 -0.730288,-6.43371 -0.875284,-12.93949 -0.331393,-19.39413 0.235429,-2.78942 0.600219,-5.56854 1.099683,-8.32322 1.976891,-10.90588 6.93917,-21.06707 13.954067,-29.61301 6.424015,-7.82536 14.785314,-12.96522 22.24808,-19.67318 14.396963,-12.940512 25.926633,-29.144553 33.397573,-47.006079 1.67252,-3.998212 3.14907,-8.098902 3.99478,-12.349406 0.18641,-0.937127 0.34138,-1.877266 0.46905,-2.821038 0.0454,-0.335011 0.0876,-0.671631 0.12638,-1.007671 0.0388,-0.336039 0.0741,-0.672615 0.10626,-1.009161 0.0327,-0.337068 0.0617,-0.673613 0.0883,-1.010667 7.6e-4,-0.0072 7.6e-4,-0.01593 9.8e-4,-0.02389 z m 33.63473,149.562748 c 0.10524,0.0116 0.20504,0.0879 0.28727,0.20947 0.70936,1.04487 1.20844,2.24429 1.90911,3.30654 0.72979,1.10668 1.52293,2.16998 2.3288,3.22201 1.39827,1.82522 2.88447,3.57971 4.42269,5.28747 0.68636,0.76196 1.38975,1.50754 2.10064,2.24651 0.5214,0.54287 1.42449,1.19461 1.73704,1.88966 0.18488,0.41061 0.0818,0.89366 -0.0867,1.3114 -1.55558,3.85931 -3.14481,7.64469 -5.13038,11.31556 -0.73132,1.35232 -0.90466,2.31685 -2.20387,0.69796 -2.23786,-2.78839 -4.47547,-5.57746 -6.71333,-8.36585 -1.09084,-1.35997 -2.49131,-2.71505 -2.50459,-4.57754 -0.0116,-1.64188 0.84513,-3.25614 1.25828,-4.82142 0.47598,-1.80581 0.90612,-3.61635 1.2493,-5.45281 0.25689,-1.37426 0.47714,-2.75518 0.67477,-4.13916 0.0853,-0.597 -0.0293,-1.43875 0.35684,-1.9525 0.1022,-0.13579 0.21104,-0.18802 0.3142,-0.1773 z m -67.12654,7.4e-4 c 0.10364,-0.0116 0.21205,0.0402 0.31419,0.17656 0.38609,0.51324 0.27155,1.3555 0.35684,1.9525 0.19764,1.38398 0.4179,2.7649 0.67477,4.13916 0.3437,1.83646 0.77358,3.64648 1.25006,5.45281 0.41264,1.56528 1.26928,3.17879 1.25753,4.82068 -0.0145,1.8625 -1.41375,3.21881 -2.50459,4.57828 -2.23787,2.78839 -4.476209,5.57746 -6.71408,8.36585 -1.298689,1.61889 -1.471797,0.65362 -2.203114,-0.69871 -1.985578,-3.67087 -3.574792,-7.4555 -5.130364,-11.31481 -0.168026,-0.41774 -0.271649,-0.90079 -0.08686,-1.3114 0.313052,-0.69505 1.215884,-1.34679 1.737801,-1.88966 0.710384,-0.73897 1.414021,-1.48507 2.099883,-2.24651 1.538721,-1.70826 3.024415,-3.46225 4.422686,-5.28747 0.805871,-1.05203 1.599016,-2.11556 2.328798,-3.22276 0.70067,-1.06224 1.19975,-2.26092 1.9091,-3.30579 0.0822,-0.12103 0.18207,-0.198 0.28727,-0.20873 z" />
  </g>
</svg>
